<mxfile host="app.diagrams.net" agent="Mozilla/5.0 (Windows NT 10.0; Win64; x64) AppleWebKit/537.36 (KHTML, like Gecko) Chrome/139.0.0.0 Safari/537.36" version="28.1.0">
  <diagram name="Page-1" id="A49zh9T0gHdUl9g2IPTR">
    <mxGraphModel dx="1737" dy="878" grid="0" gridSize="10" guides="1" tooltips="1" connect="1" arrows="1" fold="1" page="1" pageScale="1" pageWidth="827" pageHeight="1169" math="0" shadow="0">
      <root>
        <mxCell id="0" />
        <mxCell id="1" parent="0" />
        <mxCell id="ZnFXboyCL3SdWoD0h1qs-2" value="" style="rounded=0;whiteSpace=wrap;html=1;sketch=1;hachureGap=4;jiggle=2;curveFitting=1;fontFamily=Architects Daughter;fontSource=https%3A%2F%2Ffonts.googleapis.com%2Fcss%3Ffamily%3DArchitects%2BDaughter;" parent="1" vertex="1">
          <mxGeometry x="40" y="50" width="270" height="200" as="geometry" />
        </mxCell>
        <mxCell id="ZnFXboyCL3SdWoD0h1qs-4" value="" style="endArrow=none;dashed=1;html=1;rounded=0;sketch=1;hachureGap=4;jiggle=2;curveFitting=1;fontFamily=Architects Daughter;fontSource=https%3A%2F%2Ffonts.googleapis.com%2Fcss%3Ffamily%3DArchitects%2BDaughter;exitX=0;exitY=0.25;exitDx=0;exitDy=0;entryX=1;entryY=0.25;entryDx=0;entryDy=0;" parent="1" source="ZnFXboyCL3SdWoD0h1qs-2" target="ZnFXboyCL3SdWoD0h1qs-2" edge="1">
          <mxGeometry width="50" height="50" relative="1" as="geometry">
            <mxPoint x="240" y="400" as="sourcePoint" />
            <mxPoint x="290" y="350" as="targetPoint" />
          </mxGeometry>
        </mxCell>
        <mxCell id="ZnFXboyCL3SdWoD0h1qs-6" value="" style="endArrow=none;dashed=1;html=1;rounded=0;sketch=1;hachureGap=4;jiggle=2;curveFitting=1;fontFamily=Architects Daughter;fontSource=https%3A%2F%2Ffonts.googleapis.com%2Fcss%3Ffamily%3DArchitects%2BDaughter;exitX=0;exitY=0.5;exitDx=0;exitDy=0;entryX=1;entryY=0.5;entryDx=0;entryDy=0;" parent="1" source="ZnFXboyCL3SdWoD0h1qs-2" target="ZnFXboyCL3SdWoD0h1qs-2" edge="1">
          <mxGeometry width="50" height="50" relative="1" as="geometry">
            <mxPoint x="80" y="149.5" as="sourcePoint" />
            <mxPoint x="350" y="149.5" as="targetPoint" />
          </mxGeometry>
        </mxCell>
        <mxCell id="ZnFXboyCL3SdWoD0h1qs-7" value="" style="endArrow=none;dashed=1;html=1;rounded=0;sketch=1;hachureGap=4;jiggle=2;curveFitting=1;fontFamily=Architects Daughter;fontSource=https%3A%2F%2Ffonts.googleapis.com%2Fcss%3Ffamily%3DArchitects%2BDaughter;exitX=0;exitY=0.75;exitDx=0;exitDy=0;" parent="1" source="ZnFXboyCL3SdWoD0h1qs-2" edge="1">
          <mxGeometry width="50" height="50" relative="1" as="geometry">
            <mxPoint x="70" y="200" as="sourcePoint" />
            <mxPoint x="310" y="200" as="targetPoint" />
          </mxGeometry>
        </mxCell>
        <mxCell id="ZnFXboyCL3SdWoD0h1qs-10" value="Nom" style="text;html=1;align=center;verticalAlign=middle;whiteSpace=wrap;rounded=0;fontFamily=Architects Daughter;fontSource=https%3A%2F%2Ffonts.googleapis.com%2Fcss%3Ffamily%3DArchitects%2BDaughter;" parent="1" vertex="1">
          <mxGeometry x="50" y="60" width="60" height="30" as="geometry" />
        </mxCell>
        <mxCell id="ZnFXboyCL3SdWoD0h1qs-11" value="Prénom" style="text;html=1;align=center;verticalAlign=middle;whiteSpace=wrap;rounded=0;fontFamily=Architects Daughter;fontSource=https%3A%2F%2Ffonts.googleapis.com%2Fcss%3Ffamily%3DArchitects%2BDaughter;" parent="1" vertex="1">
          <mxGeometry x="60" y="110" width="60" height="30" as="geometry" />
        </mxCell>
        <mxCell id="ZnFXboyCL3SdWoD0h1qs-12" value="Mail" style="text;html=1;align=center;verticalAlign=middle;whiteSpace=wrap;rounded=0;fontFamily=Architects Daughter;fontSource=https%3A%2F%2Ffonts.googleapis.com%2Fcss%3Ffamily%3DArchitects%2BDaughter;fillColor=#dae8fc;strokeColor=#6c8ebf;" parent="1" vertex="1">
          <mxGeometry x="50" y="160" width="60" height="30" as="geometry" />
        </mxCell>
        <mxCell id="ZnFXboyCL3SdWoD0h1qs-13" value="Mdp" style="text;html=1;align=center;verticalAlign=middle;whiteSpace=wrap;rounded=0;fontFamily=Architects Daughter;fontSource=https%3A%2F%2Ffonts.googleapis.com%2Fcss%3Ffamily%3DArchitects%2BDaughter;fillColor=#dae8fc;strokeColor=#6c8ebf;" parent="1" vertex="1">
          <mxGeometry x="50" y="210" width="60" height="30" as="geometry" />
        </mxCell>
        <mxCell id="ZnFXboyCL3SdWoD0h1qs-14" value="" style="endArrow=classic;html=1;rounded=0;sketch=1;hachureGap=4;jiggle=2;curveFitting=1;fontFamily=Architects Daughter;fontSource=https%3A%2F%2Ffonts.googleapis.com%2Fcss%3Ffamily%3DArchitects%2BDaughter;" parent="1" edge="1">
          <mxGeometry width="50" height="50" relative="1" as="geometry">
            <mxPoint x="310" y="180" as="sourcePoint" />
            <mxPoint x="380" y="180" as="targetPoint" />
          </mxGeometry>
        </mxCell>
        <mxCell id="ZnFXboyCL3SdWoD0h1qs-15" value="" style="endArrow=classic;html=1;rounded=0;sketch=1;hachureGap=4;jiggle=2;curveFitting=1;fontFamily=Architects Daughter;fontSource=https%3A%2F%2Ffonts.googleapis.com%2Fcss%3Ffamily%3DArchitects%2BDaughter;" parent="1" edge="1">
          <mxGeometry width="50" height="50" relative="1" as="geometry">
            <mxPoint x="310" y="224.5" as="sourcePoint" />
            <mxPoint x="380" y="224.5" as="targetPoint" />
          </mxGeometry>
        </mxCell>
        <mxCell id="ZnFXboyCL3SdWoD0h1qs-16" value="Confirmation de se connecter" style="rounded=0;whiteSpace=wrap;html=1;sketch=1;hachureGap=4;jiggle=2;curveFitting=1;fontFamily=Architects Daughter;fontSource=https%3A%2F%2Ffonts.googleapis.com%2Fcss%3Ffamily%3DArchitects%2BDaughter;fillColor=#d5e8d4;strokeColor=#82b366;gradientColor=#97d077;" parent="1" vertex="1">
          <mxGeometry x="380" y="169" width="190" height="70" as="geometry" />
        </mxCell>
        <mxCell id="ZnFXboyCL3SdWoD0h1qs-17" value="" style="rounded=0;whiteSpace=wrap;html=1;hachureGap=4;fontFamily=Architects Daughter;fontSource=https%3A%2F%2Ffonts.googleapis.com%2Fcss%3Ffamily%3DArchitects%2BDaughter;" parent="1" vertex="1">
          <mxGeometry x="670" y="110" width="270" height="480" as="geometry" />
        </mxCell>
        <mxCell id="ZnFXboyCL3SdWoD0h1qs-21" value="Ecole" style="text;html=1;align=center;verticalAlign=middle;whiteSpace=wrap;rounded=0;fontFamily=Architects Daughter;fontSource=https%3A%2F%2Ffonts.googleapis.com%2Fcss%3Ffamily%3DArchitects%2BDaughter;fillColor=#fff2cc;strokeColor=#d6b656;" parent="1" vertex="1">
          <mxGeometry x="680" y="121" width="90" height="30" as="geometry" />
        </mxCell>
        <mxCell id="ZnFXboyCL3SdWoD0h1qs-22" value="Site / Ville" style="text;html=1;align=center;verticalAlign=middle;whiteSpace=wrap;rounded=0;fontFamily=Architects Daughter;fontSource=https%3A%2F%2Ffonts.googleapis.com%2Fcss%3Ffamily%3DArchitects%2BDaughter;fillColor=#fff2cc;strokeColor=#d6b656;" parent="1" vertex="1">
          <mxGeometry x="680" y="157" width="80" height="30" as="geometry" />
        </mxCell>
        <mxCell id="ZnFXboyCL3SdWoD0h1qs-23" value="Classe / Niveau" style="text;html=1;align=center;verticalAlign=middle;whiteSpace=wrap;rounded=0;fontFamily=Architects Daughter;fontSource=https%3A%2F%2Ffonts.googleapis.com%2Fcss%3Ffamily%3DArchitects%2BDaughter;fillColor=#fff2cc;strokeColor=#d6b656;" parent="1" vertex="1">
          <mxGeometry x="680" y="194" width="100" height="35" as="geometry" />
        </mxCell>
        <mxCell id="ZnFXboyCL3SdWoD0h1qs-24" value="Année académique" style="text;html=1;align=center;verticalAlign=middle;whiteSpace=wrap;rounded=0;fontFamily=Architects Daughter;fontSource=https%3A%2F%2Ffonts.googleapis.com%2Fcss%3Ffamily%3DArchitects%2BDaughter;fillColor=#fff2cc;strokeColor=#d6b656;" parent="1" vertex="1">
          <mxGeometry x="680" y="234" width="110" height="30" as="geometry" />
        </mxCell>
        <mxCell id="ZnFXboyCL3SdWoD0h1qs-25" value="Option / Filière" style="text;html=1;align=center;verticalAlign=middle;whiteSpace=wrap;rounded=0;fontFamily=Architects Daughter;fontSource=https%3A%2F%2Ffonts.googleapis.com%2Fcss%3Ffamily%3DArchitects%2BDaughter;fillColor=#fff2cc;strokeColor=#d6b656;" parent="1" vertex="1">
          <mxGeometry x="680" y="268" width="110" height="30" as="geometry" />
        </mxCell>
        <mxCell id="ZnFXboyCL3SdWoD0h1qs-26" value="UE" style="text;html=1;align=center;verticalAlign=middle;whiteSpace=wrap;rounded=0;fontFamily=Architects Daughter;fontSource=https%3A%2F%2Ffonts.googleapis.com%2Fcss%3Ffamily%3DArchitects%2BDaughter;fillColor=#fff2cc;strokeColor=#d6b656;" parent="1" vertex="1">
          <mxGeometry x="680" y="303" width="60" height="30" as="geometry" />
        </mxCell>
        <mxCell id="ZnFXboyCL3SdWoD0h1qs-27" value="Matiere" style="text;html=1;align=center;verticalAlign=middle;whiteSpace=wrap;rounded=0;fontFamily=Architects Daughter;fontSource=https%3A%2F%2Ffonts.googleapis.com%2Fcss%3Ffamily%3DArchitects%2BDaughter;fillColor=#fff2cc;strokeColor=#d6b656;" parent="1" vertex="1">
          <mxGeometry x="680" y="339" width="60" height="30" as="geometry" />
        </mxCell>
        <mxCell id="ZnFXboyCL3SdWoD0h1qs-37" value="" style="endArrow=classic;html=1;rounded=0;sketch=1;hachureGap=4;jiggle=2;curveFitting=1;fontFamily=Architects Daughter;fontSource=https%3A%2F%2Ffonts.googleapis.com%2Fcss%3Ffamily%3DArchitects%2BDaughter;entryX=0;entryY=0.188;entryDx=0;entryDy=0;entryPerimeter=0;" parent="1" target="ZnFXboyCL3SdWoD0h1qs-17" edge="1">
          <mxGeometry width="50" height="50" relative="1" as="geometry">
            <mxPoint x="570" y="200" as="sourcePoint" />
            <mxPoint x="610" y="200" as="targetPoint" />
          </mxGeometry>
        </mxCell>
        <mxCell id="ZnFXboyCL3SdWoD0h1qs-38" value="" style="rounded=0;whiteSpace=wrap;html=1;sketch=1;hachureGap=4;jiggle=2;curveFitting=1;fontFamily=Architects Daughter;fontSource=https%3A%2F%2Ffonts.googleapis.com%2Fcss%3Ffamily%3DArchitects%2BDaughter;" parent="1" vertex="1">
          <mxGeometry x="40" y="490" width="280" height="110" as="geometry" />
        </mxCell>
        <mxCell id="ZnFXboyCL3SdWoD0h1qs-39" value="" style="endArrow=none;dashed=1;html=1;rounded=0;sketch=1;hachureGap=4;jiggle=2;curveFitting=1;fontFamily=Architects Daughter;fontSource=https%3A%2F%2Ffonts.googleapis.com%2Fcss%3Ffamily%3DArchitects%2BDaughter;exitX=0;exitY=0.5;exitDx=0;exitDy=0;entryX=1;entryY=0.5;entryDx=0;entryDy=0;" parent="1" source="ZnFXboyCL3SdWoD0h1qs-38" target="ZnFXboyCL3SdWoD0h1qs-38" edge="1">
          <mxGeometry width="50" height="50" relative="1" as="geometry">
            <mxPoint x="270" y="590" as="sourcePoint" />
            <mxPoint x="320" y="540" as="targetPoint" />
          </mxGeometry>
        </mxCell>
        <mxCell id="ZnFXboyCL3SdWoD0h1qs-41" value="Mail" style="text;html=1;align=center;verticalAlign=middle;whiteSpace=wrap;rounded=0;fontFamily=Architects Daughter;fontSource=https%3A%2F%2Ffonts.googleapis.com%2Fcss%3Ffamily%3DArchitects%2BDaughter;fillColor=#dae8fc;strokeColor=#6c8ebf;" parent="1" vertex="1">
          <mxGeometry x="50" y="500" width="60" height="30" as="geometry" />
        </mxCell>
        <mxCell id="ZnFXboyCL3SdWoD0h1qs-42" value="Mdp" style="text;html=1;align=center;verticalAlign=middle;whiteSpace=wrap;rounded=0;fontFamily=Architects Daughter;fontSource=https%3A%2F%2Ffonts.googleapis.com%2Fcss%3Ffamily%3DArchitects%2BDaughter;fillColor=#dae8fc;strokeColor=#6c8ebf;" parent="1" vertex="1">
          <mxGeometry x="50" y="555" width="60" height="30" as="geometry" />
        </mxCell>
        <mxCell id="ZnFXboyCL3SdWoD0h1qs-43" value="" style="endArrow=classic;html=1;rounded=0;sketch=1;hachureGap=4;jiggle=2;curveFitting=1;fontFamily=Architects Daughter;fontSource=https%3A%2F%2Ffonts.googleapis.com%2Fcss%3Ffamily%3DArchitects%2BDaughter;" parent="1" edge="1">
          <mxGeometry width="50" height="50" relative="1" as="geometry">
            <mxPoint x="320" y="526" as="sourcePoint" />
            <mxPoint x="390" y="526" as="targetPoint" />
          </mxGeometry>
        </mxCell>
        <mxCell id="ZnFXboyCL3SdWoD0h1qs-44" value="" style="endArrow=classic;html=1;rounded=0;sketch=1;hachureGap=4;jiggle=2;curveFitting=1;fontFamily=Architects Daughter;fontSource=https%3A%2F%2Ffonts.googleapis.com%2Fcss%3Ffamily%3DArchitects%2BDaughter;" parent="1" edge="1">
          <mxGeometry width="50" height="50" relative="1" as="geometry">
            <mxPoint x="320" y="570.5" as="sourcePoint" />
            <mxPoint x="390" y="570.5" as="targetPoint" />
          </mxGeometry>
        </mxCell>
        <mxCell id="ZnFXboyCL3SdWoD0h1qs-45" value="Confirmation de se connecter" style="rounded=0;whiteSpace=wrap;html=1;sketch=1;hachureGap=4;jiggle=2;curveFitting=1;fontFamily=Architects Daughter;fontSource=https%3A%2F%2Ffonts.googleapis.com%2Fcss%3Ffamily%3DArchitects%2BDaughter;fillColor=#d5e8d4;strokeColor=#82b366;gradientColor=#97d077;" parent="1" vertex="1">
          <mxGeometry x="390" y="515" width="190" height="70" as="geometry" />
        </mxCell>
        <mxCell id="ZnFXboyCL3SdWoD0h1qs-46" value="" style="endArrow=classic;html=1;rounded=0;sketch=1;hachureGap=4;jiggle=2;curveFitting=1;fontFamily=Architects Daughter;fontSource=https%3A%2F%2Ffonts.googleapis.com%2Fcss%3Ffamily%3DArchitects%2BDaughter;entryX=0;entryY=0.91;entryDx=0;entryDy=0;entryPerimeter=0;" parent="1" target="ZnFXboyCL3SdWoD0h1qs-17" edge="1">
          <mxGeometry width="50" height="50" relative="1" as="geometry">
            <mxPoint x="580" y="546" as="sourcePoint" />
            <mxPoint x="660" y="547" as="targetPoint" />
          </mxGeometry>
        </mxCell>
        <mxCell id="ZnFXboyCL3SdWoD0h1qs-47" value="Etudiant" style="rounded=0;whiteSpace=wrap;html=1;sketch=1;hachureGap=4;jiggle=2;curveFitting=1;fontFamily=Architects Daughter;fontSource=https%3A%2F%2Ffonts.googleapis.com%2Fcss%3Ffamily%3DArchitects%2BDaughter;" parent="1" vertex="1">
          <mxGeometry x="115" y="10" width="120" height="40" as="geometry" />
        </mxCell>
        <mxCell id="ZnFXboyCL3SdWoD0h1qs-48" value="Administrateur" style="rounded=0;whiteSpace=wrap;html=1;sketch=1;hachureGap=4;jiggle=2;curveFitting=1;fontFamily=Architects Daughter;fontSource=https%3A%2F%2Ffonts.googleapis.com%2Fcss%3Ffamily%3DArchitects%2BDaughter;" parent="1" vertex="1">
          <mxGeometry x="120" y="450" width="120" height="40" as="geometry" />
        </mxCell>
        <mxCell id="fAfBjCiRbcVAtK_k55uR-1" value="Télécharger les épreuves" style="rounded=0;whiteSpace=wrap;html=1;sketch=1;hachureGap=4;jiggle=2;curveFitting=1;fontFamily=Architects Daughter;fontSource=https%3A%2F%2Ffonts.googleapis.com%2Fcss%3Ffamily%3DArchitects%2BDaughter;fillColor=#e6d0de;strokeColor=#996185;gradientColor=#d5739d;" vertex="1" parent="1">
          <mxGeometry x="1040" y="164" width="190" height="70" as="geometry" />
        </mxCell>
        <mxCell id="fAfBjCiRbcVAtK_k55uR-2" value="" style="endArrow=classic;html=1;rounded=0;entryX=0;entryY=0.5;entryDx=0;entryDy=0;" edge="1" parent="1" target="fAfBjCiRbcVAtK_k55uR-1">
          <mxGeometry width="50" height="50" relative="1" as="geometry">
            <mxPoint x="940" y="200" as="sourcePoint" />
            <mxPoint x="990" y="150" as="targetPoint" />
          </mxGeometry>
        </mxCell>
        <mxCell id="fAfBjCiRbcVAtK_k55uR-3" value="upload des épreuves" style="rounded=0;whiteSpace=wrap;html=1;sketch=1;hachureGap=4;jiggle=2;curveFitting=1;fontFamily=Architects Daughter;fontSource=https%3A%2F%2Ffonts.googleapis.com%2Fcss%3Ffamily%3DArchitects%2BDaughter;fillColor=#dae8fc;strokeColor=#6c8ebf;gradientColor=#7ea6e0;" vertex="1" parent="1">
          <mxGeometry x="1040" y="515" width="190" height="70" as="geometry" />
        </mxCell>
        <mxCell id="fAfBjCiRbcVAtK_k55uR-4" value="" style="endArrow=classic;html=1;rounded=0;entryX=0;entryY=0.5;entryDx=0;entryDy=0;" edge="1" parent="1" target="fAfBjCiRbcVAtK_k55uR-3">
          <mxGeometry width="50" height="50" relative="1" as="geometry">
            <mxPoint x="940" y="550" as="sourcePoint" />
            <mxPoint x="990" y="500" as="targetPoint" />
          </mxGeometry>
        </mxCell>
        <mxCell id="fAfBjCiRbcVAtK_k55uR-5" value="nom-épreuve" style="text;html=1;align=center;verticalAlign=middle;whiteSpace=wrap;rounded=0;fontFamily=Architects Daughter;fontSource=https%3A%2F%2Ffonts.googleapis.com%2Fcss%3Ffamily%3DArchitects%2BDaughter;fillColor=#fff2cc;strokeColor=#d6b656;" vertex="1" parent="1">
          <mxGeometry x="680" y="377" width="106" height="30" as="geometry" />
        </mxCell>
        <mxCell id="fAfBjCiRbcVAtK_k55uR-6" value="emplacement épreuve" style="text;html=1;align=center;verticalAlign=middle;whiteSpace=wrap;rounded=0;fontFamily=Architects Daughter;fontSource=https%3A%2F%2Ffonts.googleapis.com%2Fcss%3Ffamily%3DArchitects%2BDaughter;fillColor=#fff2cc;strokeColor=#d6b656;" vertex="1" parent="1">
          <mxGeometry x="680" y="415" width="159" height="30" as="geometry" />
        </mxCell>
      </root>
    </mxGraphModel>
  </diagram>
</mxfile>
